solid CATIA STL
  facet normal  0.000000e+000  0.000000e+000  9.999999e-001
    outer loop
      vertex -4.167556e-001  2.363539e+000  2.800000e+001
      vertex  4.167556e-001  2.363539e+000  2.800000e+001
      vertex -1.570470e-015  2.400000e+000  2.800000e+001
    endloop
  endfacet
  facet normal  -0.000000e+000  0.000000e+000  1.000000e+000
    outer loop
      vertex  4.167556e-001  2.363539e+000  2.800000e+001
      vertex -4.167556e-001  2.363539e+000  2.800000e+001
      vertex  8.208483e-001  2.255262e+000  2.800000e+001
    endloop
  endfacet
  facet normal  0.000000e+000  0.000000e+000  1.000000e+000
    outer loop
      vertex  8.208483e-001  2.255262e+000  2.800000e+001
      vertex -4.167556e-001  2.363539e+000  2.800000e+001
      vertex -8.208483e-001  2.255262e+000  2.800000e+001
    endloop
  endfacet
  facet normal  -0.000000e+000  0.000000e+000  1.000000e+000
    outer loop
      vertex  8.208483e-001  2.255262e+000  2.800000e+001
      vertex -8.208483e-001  2.255262e+000  2.800000e+001
      vertex  1.200000e+000  2.078461e+000  2.800000e+001
    endloop
  endfacet
  facet normal  0.000000e+000  0.000000e+000  9.999999e-001
    outer loop
      vertex  1.200000e+000  2.078461e+000  2.800000e+001
      vertex -8.208483e-001  2.255262e+000  2.800000e+001
      vertex -1.200000e+000  2.078461e+000  2.800000e+001
    endloop
  endfacet
  facet normal  -0.000000e+000  0.000000e+000  1.000000e+000
    outer loop
      vertex  1.200000e+000  2.078461e+000  2.800000e+001
      vertex -1.200000e+000  2.078461e+000  2.800000e+001
      vertex  1.542690e+000  1.838507e+000  2.800000e+001
    endloop
  endfacet
  facet normal  0.000000e+000  0.000000e+000  1.000000e+000
    outer loop
      vertex  1.542690e+000  1.838507e+000  2.800000e+001
      vertex -1.200000e+000  2.078461e+000  2.800000e+001
      vertex -1.542690e+000  1.838507e+000  2.800000e+001
    endloop
  endfacet
  facet normal  -0.000000e+000  0.000000e+000  1.000000e+000
    outer loop
      vertex  1.542690e+000  1.838507e+000  2.800000e+001
      vertex -1.542690e+000  1.838507e+000  2.800000e+001
      vertex  1.838507e+000  1.542690e+000  2.800000e+001
    endloop
  endfacet
  facet normal  0.000000e+000  0.000000e+000  1.000000e+000
    outer loop
      vertex  1.838507e+000  1.542690e+000  2.800000e+001
      vertex -1.542690e+000  1.838507e+000  2.800000e+001
      vertex -1.838507e+000  1.542690e+000  2.800000e+001
    endloop
  endfacet
  facet normal  -0.000000e+000  0.000000e+000  1.000000e+000
    outer loop
      vertex  1.838507e+000  1.542690e+000  2.800000e+001
      vertex -1.838507e+000  1.542690e+000  2.800000e+001
      vertex  2.078461e+000  1.200000e+000  2.800000e+001
    endloop
  endfacet
  facet normal  0.000000e+000  0.000000e+000  1.000000e+000
    outer loop
      vertex  2.078461e+000  1.200000e+000  2.800000e+001
      vertex -1.838507e+000  1.542690e+000  2.800000e+001
      vertex -2.078461e+000  1.200000e+000  2.800000e+001
    endloop
  endfacet
  facet normal  -0.000000e+000  0.000000e+000  1.000000e+000
    outer loop
      vertex  2.078461e+000  1.200000e+000  2.800000e+001
      vertex -2.078461e+000  1.200000e+000  2.800000e+001
      vertex  2.255262e+000  8.208483e-001  2.800000e+001
    endloop
  endfacet
  facet normal  0.000000e+000  0.000000e+000  1.000000e+000
    outer loop
      vertex  2.255262e+000  8.208483e-001  2.800000e+001
      vertex -2.078461e+000  1.200000e+000  2.800000e+001
      vertex -2.255262e+000  8.208483e-001  2.800000e+001
    endloop
  endfacet
  facet normal  -0.000000e+000  0.000000e+000  1.000000e+000
    outer loop
      vertex  2.255262e+000  8.208483e-001  2.800000e+001
      vertex -2.255262e+000  8.208483e-001  2.800000e+001
      vertex  2.363539e+000  4.167556e-001  2.800000e+001
    endloop
  endfacet
  facet normal  0.000000e+000  0.000000e+000  1.000000e+000
    outer loop
      vertex  2.363539e+000  4.167556e-001  2.800000e+001
      vertex -2.255262e+000  8.208483e-001  2.800000e+001
      vertex -2.363539e+000  4.167556e-001  2.800000e+001
    endloop
  endfacet
  facet normal  -0.000000e+000  0.000000e+000  1.000000e+000
    outer loop
      vertex  2.363539e+000  4.167556e-001  2.800000e+001
      vertex -2.363539e+000  4.167556e-001  2.800000e+001
      vertex  2.400000e+000 -8.453931e-016  2.800000e+001
    endloop
  endfacet
  facet normal  0.000000e+000  0.000000e+000  1.000000e+000
    outer loop
      vertex  2.400000e+000 -8.453931e-016  2.800000e+001
      vertex -2.363539e+000  4.167556e-001  2.800000e+001
      vertex -2.400000e+000 -2.095305e-015  2.800000e+001
    endloop
  endfacet
  facet normal  -0.000000e+000  0.000000e+000  1.000000e+000
    outer loop
      vertex  2.400000e+000 -8.453931e-016  2.800000e+001
      vertex -2.400000e+000 -2.095305e-015  2.800000e+001
      vertex  2.363539e+000 -4.167556e-001  2.800000e+001
    endloop
  endfacet
  facet normal  0.000000e+000  0.000000e+000  1.000000e+000
    outer loop
      vertex  2.363539e+000 -4.167556e-001  2.800000e+001
      vertex -2.400000e+000 -2.095305e-015  2.800000e+001
      vertex -2.363539e+000 -4.167556e-001  2.800000e+001
    endloop
  endfacet
  facet normal  -0.000000e+000  0.000000e+000  1.000000e+000
    outer loop
      vertex  2.363539e+000 -4.167556e-001  2.800000e+001
      vertex -2.363539e+000 -4.167556e-001  2.800000e+001
      vertex  2.255262e+000 -8.208483e-001  2.800000e+001
    endloop
  endfacet
  facet normal  0.000000e+000  0.000000e+000  1.000000e+000
    outer loop
      vertex  2.255262e+000 -8.208483e-001  2.800000e+001
      vertex -2.363539e+000 -4.167556e-001  2.800000e+001
      vertex -2.255262e+000 -8.208483e-001  2.800000e+001
    endloop
  endfacet
  facet normal  -0.000000e+000  0.000000e+000  1.000000e+000
    outer loop
      vertex  2.255262e+000 -8.208483e-001  2.800000e+001
      vertex -2.255262e+000 -8.208483e-001  2.800000e+001
      vertex  2.078461e+000 -1.200000e+000  2.800000e+001
    endloop
  endfacet
  facet normal  0.000000e+000  0.000000e+000  1.000000e+000
    outer loop
      vertex  2.078461e+000 -1.200000e+000  2.800000e+001
      vertex -2.255262e+000 -8.208483e-001  2.800000e+001
      vertex -2.078461e+000 -1.200000e+000  2.800000e+001
    endloop
  endfacet
  facet normal  -0.000000e+000  0.000000e+000  1.000000e+000
    outer loop
      vertex  2.078461e+000 -1.200000e+000  2.800000e+001
      vertex -2.078461e+000 -1.200000e+000  2.800000e+001
      vertex  1.838507e+000 -1.542690e+000  2.800000e+001
    endloop
  endfacet
  facet normal  0.000000e+000  0.000000e+000  1.000000e+000
    outer loop
      vertex  1.838507e+000 -1.542690e+000  2.800000e+001
      vertex -2.078461e+000 -1.200000e+000  2.800000e+001
      vertex -1.838507e+000 -1.542690e+000  2.800000e+001
    endloop
  endfacet
  facet normal  -0.000000e+000  0.000000e+000  1.000000e+000
    outer loop
      vertex  1.838507e+000 -1.542690e+000  2.800000e+001
      vertex -1.838507e+000 -1.542690e+000  2.800000e+001
      vertex  1.542690e+000 -1.838507e+000  2.800000e+001
    endloop
  endfacet
  facet normal  0.000000e+000  0.000000e+000  1.000000e+000
    outer loop
      vertex  1.542690e+000 -1.838507e+000  2.800000e+001
      vertex -1.838507e+000 -1.542690e+000  2.800000e+001
      vertex -1.542690e+000 -1.838507e+000  2.800000e+001
    endloop
  endfacet
  facet normal  -0.000000e+000  0.000000e+000  1.000000e+000
    outer loop
      vertex  1.542690e+000 -1.838507e+000  2.800000e+001
      vertex -1.542690e+000 -1.838507e+000  2.800000e+001
      vertex  1.200000e+000 -2.078461e+000  2.800000e+001
    endloop
  endfacet
  facet normal  0.000000e+000  0.000000e+000  1.000000e+000
    outer loop
      vertex  1.200000e+000 -2.078461e+000  2.800000e+001
      vertex -1.542690e+000 -1.838507e+000  2.800000e+001
      vertex -1.200000e+000 -2.078461e+000  2.800000e+001
    endloop
  endfacet
  facet normal  -0.000000e+000  0.000000e+000  9.999999e-001
    outer loop
      vertex  1.200000e+000 -2.078461e+000  2.800000e+001
      vertex -1.200000e+000 -2.078461e+000  2.800000e+001
      vertex  8.208483e-001 -2.255262e+000  2.800000e+001
    endloop
  endfacet
  facet normal  0.000000e+000  0.000000e+000  1.000000e+000
    outer loop
      vertex  8.208483e-001 -2.255262e+000  2.800000e+001
      vertex -1.200000e+000 -2.078461e+000  2.800000e+001
      vertex -8.208483e-001 -2.255262e+000  2.800000e+001
    endloop
  endfacet
  facet normal  -0.000000e+000  0.000000e+000  1.000000e+000
    outer loop
      vertex  8.208483e-001 -2.255262e+000  2.800000e+001
      vertex -8.208483e-001 -2.255262e+000  2.800000e+001
      vertex  4.167556e-001 -2.363539e+000  2.800000e+001
    endloop
  endfacet
  facet normal  0.000000e+000  0.000000e+000  1.000000e+000
    outer loop
      vertex  4.167556e-001 -2.363539e+000  2.800000e+001
      vertex -8.208483e-001 -2.255262e+000  2.800000e+001
      vertex -4.167556e-001 -2.363539e+000  2.800000e+001
    endloop
  endfacet
  facet normal  -0.000000e+000  0.000000e+000  9.999999e-001
    outer loop
      vertex  4.167556e-001 -2.363539e+000  2.800000e+001
      vertex -4.167556e-001 -2.363539e+000  2.800000e+001
      vertex -5.595597e-016 -2.400000e+000  2.800000e+001
    endloop
  endfacet
  facet normal  9.972038e-001 -7.473033e-002 -1.066302e-017
    outer loop
      vertex  3.400000e+000  0.000000e+000  0.000000e+000
      vertex  3.400000e+000 -3.852539e-015  2.700000e+001
      vertex  3.362025e+000 -5.067437e-001  0.000000e+000
    endloop
  endfacet
  facet normal  9.972038e-001 -7.473033e-002  0.000000e+000
    outer loop
      vertex  3.362025e+000 -5.067437e-001  0.000000e+000
      vertex  3.400000e+000 -3.852539e-015  2.700000e+001
      vertex  3.362025e+000 -5.067437e-001  2.700000e+001
    endloop
  endfacet
  facet normal  9.749280e-001 -2.225208e-001  0.000000e+000
    outer loop
      vertex  3.362025e+000 -5.067437e-001  0.000000e+000
      vertex  3.362025e+000 -5.067437e-001  2.700000e+001
      vertex  3.248948e+000 -1.002168e+000  0.000000e+000
    endloop
  endfacet
  facet normal  9.749280e-001 -2.225208e-001  0.000000e+000
    outer loop
      vertex  3.248948e+000 -1.002168e+000  0.000000e+000
      vertex  3.362025e+000 -5.067437e-001  2.700000e+001
      vertex  3.248948e+000 -1.002168e+000  2.700000e+001
    endloop
  endfacet
  facet normal  9.308738e-001 -3.653411e-001  0.000000e+000
    outer loop
      vertex  3.248948e+000 -1.002168e+000  0.000000e+000
      vertex  3.248948e+000 -1.002168e+000  2.700000e+001
      vertex  3.063294e+000 -1.475205e+000  0.000000e+000
    endloop
  endfacet
  facet normal  9.308738e-001 -3.653411e-001  0.000000e+000
    outer loop
      vertex  3.063294e+000 -1.475205e+000  0.000000e+000
      vertex  3.248948e+000 -1.002168e+000  2.700000e+001
      vertex  3.063294e+000 -1.475205e+000  2.700000e+001
    endloop
  endfacet
  facet normal  8.660253e-001 -5.000001e-001  0.000000e+000
    outer loop
      vertex  3.063294e+000 -1.475205e+000  0.000000e+000
      vertex  3.063294e+000 -1.475205e+000  2.700000e+001
      vertex  2.809212e+000 -1.915288e+000  0.000000e+000
    endloop
  endfacet
  facet normal  8.660253e-001 -5.000001e-001  0.000000e+000
    outer loop
      vertex  2.809212e+000 -1.915288e+000  0.000000e+000
      vertex  3.063294e+000 -1.475205e+000  2.700000e+001
      vertex  2.809212e+000 -1.915288e+000  2.700000e+001
    endloop
  endfacet
  facet normal  7.818316e-001 -6.234898e-001  0.000000e+000
    outer loop
      vertex  2.809212e+000 -1.915288e+000  0.000000e+000
      vertex  2.809212e+000 -1.915288e+000  2.700000e+001
      vertex  2.492376e+000 -2.312587e+000  0.000000e+000
    endloop
  endfacet
  facet normal  7.818316e-001 -6.234898e-001  0.000000e+000
    outer loop
      vertex  2.492376e+000 -2.312587e+000  0.000000e+000
      vertex  2.809212e+000 -1.915288e+000  2.700000e+001
      vertex  2.492376e+000 -2.312587e+000  2.700000e+001
    endloop
  endfacet
  facet normal  6.801728e-001 -7.330518e-001  0.000000e+000
    outer loop
      vertex  2.492376e+000 -2.312587e+000  0.000000e+000
      vertex  2.492376e+000 -2.312587e+000  2.700000e+001
      vertex  2.119865e+000 -2.658227e+000  0.000000e+000
    endloop
  endfacet
  facet normal  6.801728e-001 -7.330518e-001  0.000000e+000
    outer loop
      vertex  2.119865e+000 -2.658227e+000  0.000000e+000
      vertex  2.492376e+000 -2.312587e+000  2.700000e+001
      vertex  2.119865e+000 -2.658227e+000  2.700000e+001
    endloop
  endfacet
  facet normal  5.633201e-001 -8.262387e-001  0.000000e+000
    outer loop
      vertex  2.119865e+000 -2.658227e+000  0.000000e+000
      vertex  2.119865e+000 -2.658227e+000  2.700000e+001
      vertex  1.700000e+000 -2.944486e+000  0.000000e+000
    endloop
  endfacet
  facet normal  5.633201e-001 -8.262387e-001  0.000000e+000
    outer loop
      vertex  1.700000e+000 -2.944486e+000  0.000000e+000
      vertex  2.119865e+000 -2.658227e+000  2.700000e+001
      vertex  1.700000e+000 -2.944486e+000  2.700000e+001
    endloop
  endfacet
  facet normal  4.338835e-001 -9.009690e-001  0.000000e+000
    outer loop
      vertex  1.700000e+000 -2.944486e+000  0.000000e+000
      vertex  1.700000e+000 -2.944486e+000  2.700000e+001
      vertex  1.242159e+000 -3.164971e+000  0.000000e+000
    endloop
  endfacet
  facet normal  4.338835e-001 -9.009690e-001  0.000000e+000
    outer loop
      vertex  1.242159e+000 -3.164971e+000  0.000000e+000
      vertex  1.700000e+000 -2.944486e+000  2.700000e+001
      vertex  1.242159e+000 -3.164971e+000  2.700000e+001
    endloop
  endfacet
  facet normal  2.947555e-001 -9.555727e-001  0.000000e+000
    outer loop
      vertex  1.242159e+000 -3.164971e+000  0.000000e+000
      vertex  1.242159e+000 -3.164971e+000  2.700000e+001
      vertex  7.565712e-001 -3.314755e+000  0.000000e+000
    endloop
  endfacet
  facet normal  2.947555e-001 -9.555727e-001  0.000000e+000
    outer loop
      vertex  7.565712e-001 -3.314755e+000  0.000000e+000
      vertex  1.242159e+000 -3.164971e+000  2.700000e+001
      vertex  7.565712e-001 -3.314755e+000  2.700000e+001
    endloop
  endfacet
  facet normal  1.490422e-001 -9.888308e-001  0.000000e+000
    outer loop
      vertex  7.565712e-001 -3.314755e+000  0.000000e+000
      vertex  7.565712e-001 -3.314755e+000  2.700000e+001
      vertex  2.540823e-001 -3.390493e+000  0.000000e+000
    endloop
  endfacet
  facet normal  1.490422e-001 -9.888308e-001  0.000000e+000
    outer loop
      vertex  2.540823e-001 -3.390493e+000  0.000000e+000
      vertex  7.565712e-001 -3.314755e+000  2.700000e+001
      vertex  2.540823e-001 -3.390493e+000  2.700000e+001
    endloop
  endfacet
  facet normal  0.000000e+000 -1.000000e+000  -0.000000e+000
    outer loop
      vertex  2.540823e-001 -3.390493e+000  0.000000e+000
      vertex  2.540823e-001 -3.390493e+000  2.700000e+001
      vertex -2.540823e-001 -3.390493e+000  0.000000e+000
    endloop
  endfacet
  facet normal  0.000000e+000 -1.000000e+000  0.000000e+000
    outer loop
      vertex -2.540823e-001 -3.390493e+000  0.000000e+000
      vertex  2.540823e-001 -3.390493e+000  2.700000e+001
      vertex -2.540823e-001 -3.390493e+000  2.700000e+001
    endloop
  endfacet
  facet normal -1.490422e-001 -9.888308e-001  -0.000000e+000
    outer loop
      vertex -2.540823e-001 -3.390493e+000  0.000000e+000
      vertex -2.540823e-001 -3.390493e+000  2.700000e+001
      vertex -7.565712e-001 -3.314755e+000  0.000000e+000
    endloop
  endfacet
  facet normal -1.490422e-001 -9.888308e-001  0.000000e+000
    outer loop
      vertex -7.565712e-001 -3.314755e+000  0.000000e+000
      vertex -2.540823e-001 -3.390493e+000  2.700000e+001
      vertex -7.565712e-001 -3.314755e+000  2.700000e+001
    endloop
  endfacet
  facet normal -2.947555e-001 -9.555727e-001  -0.000000e+000
    outer loop
      vertex -7.565712e-001 -3.314755e+000  0.000000e+000
      vertex -7.565712e-001 -3.314755e+000  2.700000e+001
      vertex -1.242159e+000 -3.164971e+000  0.000000e+000
    endloop
  endfacet
  facet normal -2.947555e-001 -9.555727e-001  0.000000e+000
    outer loop
      vertex -1.242159e+000 -3.164971e+000  0.000000e+000
      vertex -7.565712e-001 -3.314755e+000  2.700000e+001
      vertex -1.242159e+000 -3.164971e+000  2.700000e+001
    endloop
  endfacet
  facet normal -4.338835e-001 -9.009690e-001  -0.000000e+000
    outer loop
      vertex -1.242159e+000 -3.164971e+000  0.000000e+000
      vertex -1.242159e+000 -3.164971e+000  2.700000e+001
      vertex -1.700000e+000 -2.944486e+000  0.000000e+000
    endloop
  endfacet
  facet normal -4.338835e-001 -9.009690e-001  0.000000e+000
    outer loop
      vertex -1.700000e+000 -2.944486e+000  0.000000e+000
      vertex -1.242159e+000 -3.164971e+000  2.700000e+001
      vertex -1.700000e+000 -2.944486e+000  2.700000e+001
    endloop
  endfacet
  facet normal -5.633201e-001 -8.262387e-001  -0.000000e+000
    outer loop
      vertex -1.700000e+000 -2.944486e+000  0.000000e+000
      vertex -1.700000e+000 -2.944486e+000  2.700000e+001
      vertex -2.119865e+000 -2.658227e+000  0.000000e+000
    endloop
  endfacet
  facet normal -5.633201e-001 -8.262387e-001  0.000000e+000
    outer loop
      vertex -2.119865e+000 -2.658227e+000  0.000000e+000
      vertex -1.700000e+000 -2.944486e+000  2.700000e+001
      vertex -2.119865e+000 -2.658227e+000  2.700000e+001
    endloop
  endfacet
  facet normal -6.801728e-001 -7.330518e-001  -0.000000e+000
    outer loop
      vertex -2.119865e+000 -2.658227e+000  0.000000e+000
      vertex -2.119865e+000 -2.658227e+000  2.700000e+001
      vertex -2.492376e+000 -2.312587e+000  0.000000e+000
    endloop
  endfacet
  facet normal -6.801728e-001 -7.330518e-001  0.000000e+000
    outer loop
      vertex -2.492376e+000 -2.312587e+000  0.000000e+000
      vertex -2.119865e+000 -2.658227e+000  2.700000e+001
      vertex -2.492376e+000 -2.312587e+000  2.700000e+001
    endloop
  endfacet
  facet normal -7.818316e-001 -6.234898e-001  -0.000000e+000
    outer loop
      vertex -2.492376e+000 -2.312587e+000  0.000000e+000
      vertex -2.492376e+000 -2.312587e+000  2.700000e+001
      vertex -2.809212e+000 -1.915288e+000  0.000000e+000
    endloop
  endfacet
  facet normal -7.818316e-001 -6.234898e-001  0.000000e+000
    outer loop
      vertex -2.809212e+000 -1.915288e+000  0.000000e+000
      vertex -2.492376e+000 -2.312587e+000  2.700000e+001
      vertex -2.809212e+000 -1.915288e+000  2.700000e+001
    endloop
  endfacet
  facet normal -8.660253e-001 -5.000001e-001  -0.000000e+000
    outer loop
      vertex -2.809212e+000 -1.915288e+000  0.000000e+000
      vertex -2.809212e+000 -1.915288e+000  2.700000e+001
      vertex -3.063294e+000 -1.475205e+000  0.000000e+000
    endloop
  endfacet
  facet normal -8.660253e-001 -5.000001e-001  0.000000e+000
    outer loop
      vertex -3.063294e+000 -1.475205e+000  0.000000e+000
      vertex -2.809212e+000 -1.915288e+000  2.700000e+001
      vertex -3.063294e+000 -1.475205e+000  2.700000e+001
    endloop
  endfacet
  facet normal -9.308738e-001 -3.653411e-001  -0.000000e+000
    outer loop
      vertex -3.063294e+000 -1.475205e+000  0.000000e+000
      vertex -3.063294e+000 -1.475205e+000  2.700000e+001
      vertex -3.248948e+000 -1.002168e+000  0.000000e+000
    endloop
  endfacet
  facet normal -9.308738e-001 -3.653411e-001  0.000000e+000
    outer loop
      vertex -3.248948e+000 -1.002168e+000  0.000000e+000
      vertex -3.063294e+000 -1.475205e+000  2.700000e+001
      vertex -3.248948e+000 -1.002168e+000  2.700000e+001
    endloop
  endfacet
  facet normal -9.749280e-001 -2.225208e-001  -0.000000e+000
    outer loop
      vertex -3.248948e+000 -1.002168e+000  0.000000e+000
      vertex -3.248948e+000 -1.002168e+000  2.700000e+001
      vertex -3.362025e+000 -5.067437e-001  0.000000e+000
    endloop
  endfacet
  facet normal -9.749280e-001 -2.225208e-001  0.000000e+000
    outer loop
      vertex -3.362025e+000 -5.067437e-001  0.000000e+000
      vertex -3.248948e+000 -1.002168e+000  2.700000e+001
      vertex -3.362025e+000 -5.067437e-001  2.700000e+001
    endloop
  endfacet
  facet normal -9.972038e-001 -7.473033e-002  -0.000000e+000
    outer loop
      vertex -3.362025e+000 -5.067437e-001  0.000000e+000
      vertex -3.362025e+000 -5.067437e-001  2.700000e+001
      vertex -3.400000e+000  4.163662e-016  0.000000e+000
    endloop
  endfacet
  facet normal -9.972038e-001 -7.473033e-002  0.000000e+000
    outer loop
      vertex -3.400000e+000  4.163662e-016  0.000000e+000
      vertex -3.362025e+000 -5.067437e-001  2.700000e+001
      vertex -3.400000e+000  4.163662e-016  2.700000e+001
    endloop
  endfacet
  facet normal -9.972038e-001  7.473033e-002  0.000000e+000
    outer loop
      vertex -3.400000e+000  4.163662e-016  0.000000e+000
      vertex -3.400000e+000  4.163662e-016  2.700000e+001
      vertex -3.362025e+000  5.067437e-001  0.000000e+000
    endloop
  endfacet
  facet normal -9.972038e-001  7.473033e-002  0.000000e+000
    outer loop
      vertex -3.362025e+000  5.067437e-001  0.000000e+000
      vertex -3.400000e+000  4.163662e-016  2.700000e+001
      vertex -3.362025e+000  5.067437e-001  2.700000e+001
    endloop
  endfacet
  facet normal -9.749280e-001  2.225208e-001  0.000000e+000
    outer loop
      vertex -3.362025e+000  5.067437e-001  0.000000e+000
      vertex -3.362025e+000  5.067437e-001  2.700000e+001
      vertex -3.248948e+000  1.002168e+000  0.000000e+000
    endloop
  endfacet
  facet normal -9.749280e-001  2.225208e-001  0.000000e+000
    outer loop
      vertex -3.248948e+000  1.002168e+000  0.000000e+000
      vertex -3.362025e+000  5.067437e-001  2.700000e+001
      vertex -3.248948e+000  1.002168e+000  2.700000e+001
    endloop
  endfacet
  facet normal -9.308738e-001  3.653411e-001  0.000000e+000
    outer loop
      vertex -3.248948e+000  1.002168e+000  0.000000e+000
      vertex -3.248948e+000  1.002168e+000  2.700000e+001
      vertex -3.063294e+000  1.475205e+000  0.000000e+000
    endloop
  endfacet
  facet normal -9.308738e-001  3.653411e-001  0.000000e+000
    outer loop
      vertex -3.063294e+000  1.475205e+000  0.000000e+000
      vertex -3.248948e+000  1.002168e+000  2.700000e+001
      vertex -3.063294e+000  1.475205e+000  2.700000e+001
    endloop
  endfacet
  facet normal -8.660253e-001  5.000001e-001  0.000000e+000
    outer loop
      vertex -3.063294e+000  1.475205e+000  0.000000e+000
      vertex -3.063294e+000  1.475205e+000  2.700000e+001
      vertex -2.809212e+000  1.915288e+000  0.000000e+000
    endloop
  endfacet
  facet normal -8.660253e-001  5.000001e-001  0.000000e+000
    outer loop
      vertex -2.809212e+000  1.915288e+000  0.000000e+000
      vertex -3.063294e+000  1.475205e+000  2.700000e+001
      vertex -2.809212e+000  1.915288e+000  2.700000e+001
    endloop
  endfacet
  facet normal -7.818316e-001  6.234898e-001  0.000000e+000
    outer loop
      vertex -2.809212e+000  1.915288e+000  0.000000e+000
      vertex -2.809212e+000  1.915288e+000  2.700000e+001
      vertex -2.492376e+000  2.312587e+000  0.000000e+000
    endloop
  endfacet
  facet normal -7.818316e-001  6.234898e-001  0.000000e+000
    outer loop
      vertex -2.492376e+000  2.312587e+000  0.000000e+000
      vertex -2.809212e+000  1.915288e+000  2.700000e+001
      vertex -2.492376e+000  2.312587e+000  2.700000e+001
    endloop
  endfacet
  facet normal -6.801728e-001  7.330518e-001  0.000000e+000
    outer loop
      vertex -2.492376e+000  2.312587e+000  0.000000e+000
      vertex -2.492376e+000  2.312587e+000  2.700000e+001
      vertex -2.119865e+000  2.658227e+000  0.000000e+000
    endloop
  endfacet
  facet normal -6.801728e-001  7.330518e-001  0.000000e+000
    outer loop
      vertex -2.119865e+000  2.658227e+000  0.000000e+000
      vertex -2.492376e+000  2.312587e+000  2.700000e+001
      vertex -2.119865e+000  2.658227e+000  2.700000e+001
    endloop
  endfacet
  facet normal -5.633201e-001  8.262387e-001  0.000000e+000
    outer loop
      vertex -2.119865e+000  2.658227e+000  0.000000e+000
      vertex -2.119865e+000  2.658227e+000  2.700000e+001
      vertex -1.700000e+000  2.944486e+000  0.000000e+000
    endloop
  endfacet
  facet normal -5.633201e-001  8.262387e-001  0.000000e+000
    outer loop
      vertex -1.700000e+000  2.944486e+000  0.000000e+000
      vertex -2.119865e+000  2.658227e+000  2.700000e+001
      vertex -1.700000e+000  2.944486e+000  2.700000e+001
    endloop
  endfacet
  facet normal -4.338835e-001  9.009690e-001  0.000000e+000
    outer loop
      vertex -1.700000e+000  2.944486e+000  0.000000e+000
      vertex -1.700000e+000  2.944486e+000  2.700000e+001
      vertex -1.242159e+000  3.164971e+000  0.000000e+000
    endloop
  endfacet
  facet normal -4.338835e-001  9.009690e-001  0.000000e+000
    outer loop
      vertex -1.242159e+000  3.164971e+000  0.000000e+000
      vertex -1.700000e+000  2.944486e+000  2.700000e+001
      vertex -1.242159e+000  3.164971e+000  2.700000e+001
    endloop
  endfacet
  facet normal -2.947555e-001  9.555727e-001  0.000000e+000
    outer loop
      vertex -1.242159e+000  3.164971e+000  0.000000e+000
      vertex -1.242159e+000  3.164971e+000  2.700000e+001
      vertex -7.565712e-001  3.314755e+000  0.000000e+000
    endloop
  endfacet
  facet normal -2.947555e-001  9.555727e-001  0.000000e+000
    outer loop
      vertex -7.565712e-001  3.314755e+000  0.000000e+000
      vertex -1.242159e+000  3.164971e+000  2.700000e+001
      vertex -7.565712e-001  3.314755e+000  2.700000e+001
    endloop
  endfacet
  facet normal -1.490422e-001  9.888308e-001  0.000000e+000
    outer loop
      vertex -7.565712e-001  3.314755e+000  0.000000e+000
      vertex -7.565712e-001  3.314755e+000  2.700000e+001
      vertex -2.540823e-001  3.390493e+000  0.000000e+000
    endloop
  endfacet
  facet normal -1.490422e-001  9.888308e-001  0.000000e+000
    outer loop
      vertex -2.540823e-001  3.390493e+000  0.000000e+000
      vertex -7.565712e-001  3.314755e+000  2.700000e+001
      vertex -2.540823e-001  3.390493e+000  2.700000e+001
    endloop
  endfacet
  facet normal  0.000000e+000  1.000000e+000  0.000000e+000
    outer loop
      vertex -2.540823e-001  3.390493e+000  0.000000e+000
      vertex -2.540823e-001  3.390493e+000  2.700000e+001
      vertex  2.540823e-001  3.390493e+000  0.000000e+000
    endloop
  endfacet
  facet normal  0.000000e+000  1.000000e+000  -0.000000e+000
    outer loop
      vertex  2.540823e-001  3.390493e+000  0.000000e+000
      vertex -2.540823e-001  3.390493e+000  2.700000e+001
      vertex  2.540823e-001  3.390493e+000  2.700000e+001
    endloop
  endfacet
  facet normal  1.490422e-001  9.888308e-001  0.000000e+000
    outer loop
      vertex  2.540823e-001  3.390493e+000  0.000000e+000
      vertex  2.540823e-001  3.390493e+000  2.700000e+001
      vertex  7.565712e-001  3.314755e+000  0.000000e+000
    endloop
  endfacet
  facet normal  1.490422e-001  9.888308e-001  -0.000000e+000
    outer loop
      vertex  7.565712e-001  3.314755e+000  0.000000e+000
      vertex  2.540823e-001  3.390493e+000  2.700000e+001
      vertex  7.565712e-001  3.314755e+000  2.700000e+001
    endloop
  endfacet
  facet normal  2.947555e-001  9.555727e-001  0.000000e+000
    outer loop
      vertex  7.565712e-001  3.314755e+000  0.000000e+000
      vertex  7.565712e-001  3.314755e+000  2.700000e+001
      vertex  1.242159e+000  3.164971e+000  0.000000e+000
    endloop
  endfacet
  facet normal  2.947555e-001  9.555727e-001  -0.000000e+000
    outer loop
      vertex  1.242159e+000  3.164971e+000  0.000000e+000
      vertex  7.565712e-001  3.314755e+000  2.700000e+001
      vertex  1.242159e+000  3.164971e+000  2.700000e+001
    endloop
  endfacet
  facet normal  4.338835e-001  9.009690e-001  0.000000e+000
    outer loop
      vertex  1.242159e+000  3.164971e+000  0.000000e+000
      vertex  1.242159e+000  3.164971e+000  2.700000e+001
      vertex  1.700000e+000  2.944486e+000  0.000000e+000
    endloop
  endfacet
  facet normal  4.338835e-001  9.009690e-001  -0.000000e+000
    outer loop
      vertex  1.700000e+000  2.944486e+000  0.000000e+000
      vertex  1.242159e+000  3.164971e+000  2.700000e+001
      vertex  1.700000e+000  2.944486e+000  2.700000e+001
    endloop
  endfacet
  facet normal  5.633201e-001  8.262387e-001  0.000000e+000
    outer loop
      vertex  1.700000e+000  2.944486e+000  0.000000e+000
      vertex  1.700000e+000  2.944486e+000  2.700000e+001
      vertex  2.119865e+000  2.658227e+000  0.000000e+000
    endloop
  endfacet
  facet normal  5.633201e-001  8.262387e-001  -0.000000e+000
    outer loop
      vertex  2.119865e+000  2.658227e+000  0.000000e+000
      vertex  1.700000e+000  2.944486e+000  2.700000e+001
      vertex  2.119865e+000  2.658227e+000  2.700000e+001
    endloop
  endfacet
  facet normal  6.801728e-001  7.330518e-001  0.000000e+000
    outer loop
      vertex  2.119865e+000  2.658227e+000  0.000000e+000
      vertex  2.119865e+000  2.658227e+000  2.700000e+001
      vertex  2.492376e+000  2.312587e+000  0.000000e+000
    endloop
  endfacet
  facet normal  6.801728e-001  7.330518e-001  -0.000000e+000
    outer loop
      vertex  2.492376e+000  2.312587e+000  0.000000e+000
      vertex  2.119865e+000  2.658227e+000  2.700000e+001
      vertex  2.492376e+000  2.312587e+000  2.700000e+001
    endloop
  endfacet
  facet normal  7.818316e-001  6.234898e-001  0.000000e+000
    outer loop
      vertex  2.492376e+000  2.312587e+000  0.000000e+000
      vertex  2.492376e+000  2.312587e+000  2.700000e+001
      vertex  2.809212e+000  1.915288e+000  0.000000e+000
    endloop
  endfacet
  facet normal  7.818316e-001  6.234898e-001  -0.000000e+000
    outer loop
      vertex  2.809212e+000  1.915288e+000  0.000000e+000
      vertex  2.492376e+000  2.312587e+000  2.700000e+001
      vertex  2.809212e+000  1.915288e+000  2.700000e+001
    endloop
  endfacet
  facet normal  8.660253e-001  5.000001e-001  0.000000e+000
    outer loop
      vertex  2.809212e+000  1.915288e+000  0.000000e+000
      vertex  2.809212e+000  1.915288e+000  2.700000e+001
      vertex  3.063294e+000  1.475205e+000  0.000000e+000
    endloop
  endfacet
  facet normal  8.660253e-001  5.000001e-001  -0.000000e+000
    outer loop
      vertex  3.063294e+000  1.475205e+000  0.000000e+000
      vertex  2.809212e+000  1.915288e+000  2.700000e+001
      vertex  3.063294e+000  1.475205e+000  2.700000e+001
    endloop
  endfacet
  facet normal  9.308738e-001  3.653411e-001  0.000000e+000
    outer loop
      vertex  3.063294e+000  1.475205e+000  0.000000e+000
      vertex  3.063294e+000  1.475205e+000  2.700000e+001
      vertex  3.248948e+000  1.002168e+000  0.000000e+000
    endloop
  endfacet
  facet normal  9.308738e-001  3.653411e-001  -0.000000e+000
    outer loop
      vertex  3.248948e+000  1.002168e+000  0.000000e+000
      vertex  3.063294e+000  1.475205e+000  2.700000e+001
      vertex  3.248948e+000  1.002168e+000  2.700000e+001
    endloop
  endfacet
  facet normal  9.749280e-001  2.225208e-001  0.000000e+000
    outer loop
      vertex  3.248948e+000  1.002168e+000  0.000000e+000
      vertex  3.248948e+000  1.002168e+000  2.700000e+001
      vertex  3.362025e+000  5.067437e-001  0.000000e+000
    endloop
  endfacet
  facet normal  9.749280e-001  2.225208e-001  -0.000000e+000
    outer loop
      vertex  3.362025e+000  5.067437e-001  0.000000e+000
      vertex  3.248948e+000  1.002168e+000  2.700000e+001
      vertex  3.362025e+000  5.067437e-001  2.700000e+001
    endloop
  endfacet
  facet normal  9.972038e-001  7.473033e-002  0.000000e+000
    outer loop
      vertex  3.362025e+000  5.067437e-001  0.000000e+000
      vertex  3.362025e+000  5.067437e-001  2.700000e+001
      vertex  3.400000e+000  0.000000e+000  0.000000e+000
    endloop
  endfacet
  facet normal  9.972038e-001  7.473033e-002  1.066302e-017
    outer loop
      vertex  3.400000e+000  0.000000e+000  0.000000e+000
      vertex  3.362025e+000  5.067437e-001  2.700000e+001
      vertex  3.400000e+000 -3.852539e-015  2.700000e+001
    endloop
  endfacet
  facet normal  7.035256e-001 -6.155085e-002  7.079995e-001
    outer loop
      vertex  2.363539e+000 -4.167556e-001  2.800000e+001
      vertex  3.362025e+000 -5.067437e-001  2.700000e+001
      vertex  2.400000e+000 -8.453931e-016  2.800000e+001
    endloop
  endfacet
  facet normal  7.061161e-001 -5.291625e-002  7.061161e-001
    outer loop
      vertex  3.362025e+000 -5.067437e-001  2.700000e+001
      vertex  3.400000e+000 -3.852539e-015  2.700000e+001
      vertex  2.400000e+000 -8.453931e-016  2.800000e+001
    endloop
  endfacet
  facet normal -7.061161e-001 -5.291625e-002  7.061161e-001
    outer loop
      vertex -3.400000e+000  4.163662e-016  2.700000e+001
      vertex -3.362025e+000 -5.067437e-001  2.700000e+001
      vertex -2.400000e+000 -2.095305e-015  2.800000e+001
    endloop
  endfacet
  facet normal -7.035256e-001 -6.155085e-002  7.079995e-001
    outer loop
      vertex -3.362025e+000 -5.067437e-001  2.700000e+001
      vertex -2.363539e+000 -4.167556e-001  2.800000e+001
      vertex -2.400000e+000 -2.095305e-015  2.800000e+001
    endloop
  endfacet
  facet normal -6.916304e-001 -1.578600e-001  7.047890e-001
    outer loop
      vertex -3.362025e+000 -5.067437e-001  2.700000e+001
      vertex -3.248948e+000 -1.002168e+000  2.700000e+001
      vertex -2.363539e+000 -4.167556e-001  2.800000e+001
    endloop
  endfacet
  facet normal -6.611168e-001 -2.594693e-001  7.039888e-001
    outer loop
      vertex -3.248948e+000 -1.002168e+000  2.700000e+001
      vertex -3.063294e+000 -1.475205e+000  2.700000e+001
      vertex -2.255262e+000 -8.208483e-001  2.800000e+001
    endloop
  endfacet
  facet normal -6.807098e-001 -1.823953e-001  7.094830e-001
    outer loop
      vertex -2.363539e+000 -4.167556e-001  2.800000e+001
      vertex -3.248948e+000 -1.002168e+000  2.700000e+001
      vertex -2.255262e+000 -8.208483e-001  2.800000e+001
    endloop
  endfacet
  facet normal -6.152902e-001 -3.552381e-001  7.037214e-001
    outer loop
      vertex -3.063294e+000 -1.475205e+000  2.700000e+001
      vertex -2.809212e+000 -1.915288e+000  2.700000e+001
      vertex -2.078461e+000 -1.200000e+000  2.800000e+001
    endloop
  endfacet
  facet normal -6.380209e-001 -2.975142e-001  7.102215e-001
    outer loop
      vertex -2.255262e+000 -8.208483e-001  2.800000e+001
      vertex -3.063294e+000 -1.475205e+000  2.700000e+001
      vertex -2.078461e+000 -1.200000e+000  2.800000e+001
    endloop
  endfacet
  facet normal -5.552654e-001 -4.428094e-001  7.039888e-001
    outer loop
      vertex -2.809212e+000 -1.915288e+000  2.700000e+001
      vertex -2.492376e+000 -2.312587e+000  2.700000e+001
      vertex -1.838507e+000 -1.542690e+000  2.800000e+001
    endloop
  endfacet
  facet normal -5.766653e-001 -4.037853e-001  7.102215e-001
    outer loop
      vertex -2.078461e+000 -1.200000e+000  2.800000e+001
      vertex -2.809212e+000 -1.915288e+000  2.700000e+001
      vertex -1.838507e+000 -1.542690e+000  2.800000e+001
    endloop
  endfacet
  facet normal -4.825262e-001 -5.200394e-001  7.047889e-001
    outer loop
      vertex -2.492376e+000 -2.312587e+000  2.700000e+001
      vertex -2.119865e+000 -2.658227e+000  2.700000e+001
      vertex -1.542690e+000 -1.838507e+000  2.800000e+001
    endloop
  endfacet
  facet normal -4.983141e-001 -4.983141e-001  7.094830e-001
    outer loop
      vertex -1.838507e+000 -1.542690e+000  2.800000e+001
      vertex -2.492376e+000 -2.312587e+000  2.700000e+001
      vertex -1.542690e+000 -1.838507e+000  2.800000e+001
    endloop
  endfacet
  facet normal -3.988848e-001 -5.850564e-001  7.061161e-001
    outer loop
      vertex -2.119865e+000 -2.658227e+000  2.700000e+001
      vertex -1.700000e+000 -2.944486e+000  2.700000e+001
      vertex -1.200000e+000 -2.078461e+000  2.800000e+001
    endloop
  endfacet
  facet normal -4.050671e-001 -5.784959e-001  7.079995e-001
    outer loop
      vertex -1.542690e+000 -1.838507e+000  2.800000e+001
      vertex -2.119865e+000 -2.658227e+000  2.700000e+001
      vertex -1.200000e+000 -2.078461e+000  2.800000e+001
    endloop
  endfacet
  facet normal -2.091046e-001 -6.778996e-001  7.047889e-001
    outer loop
      vertex -1.242159e+000 -3.164971e+000  2.700000e+001
      vertex -7.565712e-001 -3.314755e+000  2.700000e+001
      vertex -8.208483e-001 -2.255262e+000  2.800000e+001
    endloop
  endfacet
  facet normal -2.984587e-001 -6.400464e-001  7.079994e-001
    outer loop
      vertex -1.200000e+000 -2.078461e+000  2.800000e+001
      vertex -1.242159e+000 -3.164971e+000  2.700000e+001
      vertex -8.208483e-001 -2.255262e+000  2.800000e+001
    endloop
  endfacet
  facet normal -1.058514e-001 -7.022786e-001  7.039889e-001
    outer loop
      vertex -7.565712e-001 -3.314755e+000  2.700000e+001
      vertex -2.540823e-001 -3.390493e+000  2.700000e+001
      vertex -4.167556e-001 -2.363539e+000  2.800000e+001
    endloop
  endfacet
  facet normal -1.823953e-001 -6.807097e-001  7.094830e-001
    outer loop
      vertex -8.208483e-001 -2.255262e+000  2.800000e+001
      vertex -7.565712e-001 -3.314755e+000  2.700000e+001
      vertex -4.167556e-001 -2.363539e+000  2.800000e+001
    endloop
  endfacet
  facet normal  0.000000e+000 -7.104760e-001  7.037214e-001
    outer loop
      vertex -2.540823e-001 -3.390493e+000  2.700000e+001
      vertex  2.540823e-001 -3.390493e+000  2.700000e+001
      vertex -5.595597e-016 -2.400000e+000  2.800000e+001
    endloop
  endfacet
  facet normal -6.135608e-002 -7.012994e-001  7.102215e-001
    outer loop
      vertex -4.167556e-001 -2.363539e+000  2.800000e+001
      vertex -2.540823e-001 -3.390493e+000  2.700000e+001
      vertex -5.595597e-016 -2.400000e+000  2.800000e+001
    endloop
  endfacet
  facet normal  1.058514e-001 -7.022786e-001  7.039889e-001
    outer loop
      vertex  2.540823e-001 -3.390493e+000  2.700000e+001
      vertex  7.565712e-001 -3.314755e+000  2.700000e+001
      vertex  4.167556e-001 -2.363539e+000  2.800000e+001
    endloop
  endfacet
  facet normal  6.135608e-002 -7.012994e-001  7.102215e-001
    outer loop
      vertex -5.595597e-016 -2.400000e+000  2.800000e+001
      vertex  2.540823e-001 -3.390493e+000  2.700000e+001
      vertex  4.167556e-001 -2.363539e+000  2.800000e+001
    endloop
  endfacet
  facet normal  2.091046e-001 -6.778996e-001  7.047889e-001
    outer loop
      vertex  7.565712e-001 -3.314755e+000  2.700000e+001
      vertex  1.242159e+000 -3.164971e+000  2.700000e+001
      vertex  8.208483e-001 -2.255262e+000  2.800000e+001
    endloop
  endfacet
  facet normal  1.823953e-001 -6.807097e-001  7.094830e-001
    outer loop
      vertex  4.167556e-001 -2.363539e+000  2.800000e+001
      vertex  7.565712e-001 -3.314755e+000  2.700000e+001
      vertex  8.208483e-001 -2.255262e+000  2.800000e+001
    endloop
  endfacet
  facet normal  3.072312e-001 -6.379726e-001  7.061161e-001
    outer loop
      vertex  1.242159e+000 -3.164971e+000  2.700000e+001
      vertex  1.700000e+000 -2.944486e+000  2.700000e+001
      vertex  1.200000e+000 -2.078461e+000  2.800000e+001
    endloop
  endfacet
  facet normal  2.984587e-001 -6.400464e-001  7.079994e-001
    outer loop
      vertex  8.208483e-001 -2.255262e+000  2.800000e+001
      vertex  1.242159e+000 -3.164971e+000  2.700000e+001
      vertex  1.200000e+000 -2.078461e+000  2.800000e+001
    endloop
  endfacet
  facet normal  4.825262e-001 -5.200394e-001  7.047889e-001
    outer loop
      vertex  2.119865e+000 -2.658227e+000  2.700000e+001
      vertex  2.492376e+000 -2.312587e+000  2.700000e+001
      vertex  1.542690e+000 -1.838507e+000  2.800000e+001
    endloop
  endfacet
  facet normal  4.050671e-001 -5.784959e-001  7.079995e-001
    outer loop
      vertex  1.200000e+000 -2.078461e+000  2.800000e+001
      vertex  2.119865e+000 -2.658227e+000  2.700000e+001
      vertex  1.542690e+000 -1.838507e+000  2.800000e+001
    endloop
  endfacet
  facet normal  5.552654e-001 -4.428094e-001  7.039888e-001
    outer loop
      vertex  2.492376e+000 -2.312587e+000  2.700000e+001
      vertex  2.809212e+000 -1.915288e+000  2.700000e+001
      vertex  1.838507e+000 -1.542690e+000  2.800000e+001
    endloop
  endfacet
  facet normal  4.983141e-001 -4.983141e-001  7.094830e-001
    outer loop
      vertex  1.542690e+000 -1.838507e+000  2.800000e+001
      vertex  2.492376e+000 -2.312587e+000  2.700000e+001
      vertex  1.838507e+000 -1.542690e+000  2.800000e+001
    endloop
  endfacet
  facet normal  6.152902e-001 -3.552381e-001  7.037214e-001
    outer loop
      vertex  2.809212e+000 -1.915288e+000  2.700000e+001
      vertex  3.063294e+000 -1.475205e+000  2.700000e+001
      vertex  2.078461e+000 -1.200000e+000  2.800000e+001
    endloop
  endfacet
  facet normal  5.766653e-001 -4.037853e-001  7.102215e-001
    outer loop
      vertex  1.838507e+000 -1.542690e+000  2.800000e+001
      vertex  2.809212e+000 -1.915288e+000  2.700000e+001
      vertex  2.078461e+000 -1.200000e+000  2.800000e+001
    endloop
  endfacet
  facet normal  6.611168e-001 -2.594693e-001  7.039888e-001
    outer loop
      vertex  3.063294e+000 -1.475205e+000  2.700000e+001
      vertex  3.248948e+000 -1.002168e+000  2.700000e+001
      vertex  2.255262e+000 -8.208483e-001  2.800000e+001
    endloop
  endfacet
  facet normal  6.380209e-001 -2.975142e-001  7.102215e-001
    outer loop
      vertex  2.078461e+000 -1.200000e+000  2.800000e+001
      vertex  3.063294e+000 -1.475205e+000  2.700000e+001
      vertex  2.255262e+000 -8.208483e-001  2.800000e+001
    endloop
  endfacet
  facet normal  6.916304e-001 -1.578600e-001  7.047890e-001
    outer loop
      vertex  3.248948e+000 -1.002168e+000  2.700000e+001
      vertex  3.362025e+000 -5.067437e-001  2.700000e+001
      vertex  2.363539e+000 -4.167556e-001  2.800000e+001
    endloop
  endfacet
  facet normal  6.807098e-001 -1.823953e-001  7.094830e-001
    outer loop
      vertex  2.255262e+000 -8.208483e-001  2.800000e+001
      vertex  3.248948e+000 -1.002168e+000  2.700000e+001
      vertex  2.363539e+000 -4.167556e-001  2.800000e+001
    endloop
  endfacet
  facet normal -3.072312e-001 -6.379726e-001  7.061161e-001
    outer loop
      vertex -1.700000e+000 -2.944486e+000  2.700000e+001
      vertex -1.242159e+000 -3.164971e+000  2.700000e+001
      vertex -1.200000e+000 -2.078461e+000  2.800000e+001
    endloop
  endfacet
  facet normal  3.988848e-001 -5.850564e-001  7.061161e-001
    outer loop
      vertex  1.700000e+000 -2.944486e+000  2.700000e+001
      vertex  2.119865e+000 -2.658227e+000  2.700000e+001
      vertex  1.200000e+000 -2.078461e+000  2.800000e+001
    endloop
  endfacet
  facet normal -7.035256e-001  6.155085e-002  7.079995e-001
    outer loop
      vertex -2.363539e+000  4.167556e-001  2.800000e+001
      vertex -3.362025e+000  5.067437e-001  2.700000e+001
      vertex -2.400000e+000 -2.095305e-015  2.800000e+001
    endloop
  endfacet
  facet normal -7.061161e-001  5.291625e-002  7.061161e-001
    outer loop
      vertex -3.362025e+000  5.067437e-001  2.700000e+001
      vertex -3.400000e+000  4.163662e-016  2.700000e+001
      vertex -2.400000e+000 -2.095305e-015  2.800000e+001
    endloop
  endfacet
  facet normal  7.061161e-001  5.291625e-002  7.061161e-001
    outer loop
      vertex  3.400000e+000 -3.852539e-015  2.700000e+001
      vertex  3.362025e+000  5.067437e-001  2.700000e+001
      vertex  2.400000e+000 -8.453931e-016  2.800000e+001
    endloop
  endfacet
  facet normal  7.035256e-001  6.155085e-002  7.079995e-001
    outer loop
      vertex  3.362025e+000  5.067437e-001  2.700000e+001
      vertex  2.363539e+000  4.167556e-001  2.800000e+001
      vertex  2.400000e+000 -8.453931e-016  2.800000e+001
    endloop
  endfacet
  facet normal  6.916304e-001  1.578600e-001  7.047890e-001
    outer loop
      vertex  3.362025e+000  5.067437e-001  2.700000e+001
      vertex  3.248948e+000  1.002168e+000  2.700000e+001
      vertex  2.363539e+000  4.167556e-001  2.800000e+001
    endloop
  endfacet
  facet normal  6.611168e-001  2.594693e-001  7.039888e-001
    outer loop
      vertex  3.248948e+000  1.002168e+000  2.700000e+001
      vertex  3.063294e+000  1.475205e+000  2.700000e+001
      vertex  2.255262e+000  8.208483e-001  2.800000e+001
    endloop
  endfacet
  facet normal  6.807098e-001  1.823953e-001  7.094830e-001
    outer loop
      vertex  2.363539e+000  4.167556e-001  2.800000e+001
      vertex  3.248948e+000  1.002168e+000  2.700000e+001
      vertex  2.255262e+000  8.208483e-001  2.800000e+001
    endloop
  endfacet
  facet normal  6.152902e-001  3.552381e-001  7.037214e-001
    outer loop
      vertex  3.063294e+000  1.475205e+000  2.700000e+001
      vertex  2.809212e+000  1.915288e+000  2.700000e+001
      vertex  2.078461e+000  1.200000e+000  2.800000e+001
    endloop
  endfacet
  facet normal  6.380209e-001  2.975142e-001  7.102215e-001
    outer loop
      vertex  2.255262e+000  8.208483e-001  2.800000e+001
      vertex  3.063294e+000  1.475205e+000  2.700000e+001
      vertex  2.078461e+000  1.200000e+000  2.800000e+001
    endloop
  endfacet
  facet normal  5.552654e-001  4.428094e-001  7.039888e-001
    outer loop
      vertex  2.809212e+000  1.915288e+000  2.700000e+001
      vertex  2.492376e+000  2.312587e+000  2.700000e+001
      vertex  1.838507e+000  1.542690e+000  2.800000e+001
    endloop
  endfacet
  facet normal  5.766653e-001  4.037853e-001  7.102215e-001
    outer loop
      vertex  2.078461e+000  1.200000e+000  2.800000e+001
      vertex  2.809212e+000  1.915288e+000  2.700000e+001
      vertex  1.838507e+000  1.542690e+000  2.800000e+001
    endloop
  endfacet
  facet normal  4.825262e-001  5.200394e-001  7.047889e-001
    outer loop
      vertex  2.492376e+000  2.312587e+000  2.700000e+001
      vertex  2.119865e+000  2.658227e+000  2.700000e+001
      vertex  1.542690e+000  1.838507e+000  2.800000e+001
    endloop
  endfacet
  facet normal  4.983141e-001  4.983141e-001  7.094830e-001
    outer loop
      vertex  1.838507e+000  1.542690e+000  2.800000e+001
      vertex  2.492376e+000  2.312587e+000  2.700000e+001
      vertex  1.542690e+000  1.838507e+000  2.800000e+001
    endloop
  endfacet
  facet normal  3.988848e-001  5.850564e-001  7.061161e-001
    outer loop
      vertex  2.119865e+000  2.658227e+000  2.700000e+001
      vertex  1.700000e+000  2.944486e+000  2.700000e+001
      vertex  1.200000e+000  2.078461e+000  2.800000e+001
    endloop
  endfacet
  facet normal  4.050671e-001  5.784959e-001  7.079995e-001
    outer loop
      vertex  1.542690e+000  1.838507e+000  2.800000e+001
      vertex  2.119865e+000  2.658227e+000  2.700000e+001
      vertex  1.200000e+000  2.078461e+000  2.800000e+001
    endloop
  endfacet
  facet normal  2.091046e-001  6.778996e-001  7.047889e-001
    outer loop
      vertex  1.242159e+000  3.164971e+000  2.700000e+001
      vertex  7.565712e-001  3.314755e+000  2.700000e+001
      vertex  8.208483e-001  2.255262e+000  2.800000e+001
    endloop
  endfacet
  facet normal  2.984587e-001  6.400464e-001  7.079994e-001
    outer loop
      vertex  1.200000e+000  2.078461e+000  2.800000e+001
      vertex  1.242159e+000  3.164971e+000  2.700000e+001
      vertex  8.208483e-001  2.255262e+000  2.800000e+001
    endloop
  endfacet
  facet normal  1.058514e-001  7.022786e-001  7.039889e-001
    outer loop
      vertex  7.565712e-001  3.314755e+000  2.700000e+001
      vertex  2.540823e-001  3.390493e+000  2.700000e+001
      vertex  4.167556e-001  2.363539e+000  2.800000e+001
    endloop
  endfacet
  facet normal  1.823953e-001  6.807097e-001  7.094830e-001
    outer loop
      vertex  8.208483e-001  2.255262e+000  2.800000e+001
      vertex  7.565712e-001  3.314755e+000  2.700000e+001
      vertex  4.167556e-001  2.363539e+000  2.800000e+001
    endloop
  endfacet
  facet normal  -0.000000e+000  7.104760e-001  7.037214e-001
    outer loop
      vertex  2.540823e-001  3.390493e+000  2.700000e+001
      vertex -2.540823e-001  3.390493e+000  2.700000e+001
      vertex -1.570470e-015  2.400000e+000  2.800000e+001
    endloop
  endfacet
  facet normal  6.135608e-002  7.012994e-001  7.102215e-001
    outer loop
      vertex  4.167556e-001  2.363539e+000  2.800000e+001
      vertex  2.540823e-001  3.390493e+000  2.700000e+001
      vertex -1.570470e-015  2.400000e+000  2.800000e+001
    endloop
  endfacet
  facet normal -1.058514e-001  7.022786e-001  7.039889e-001
    outer loop
      vertex -2.540823e-001  3.390493e+000  2.700000e+001
      vertex -7.565712e-001  3.314755e+000  2.700000e+001
      vertex -4.167556e-001  2.363539e+000  2.800000e+001
    endloop
  endfacet
  facet normal -6.135608e-002  7.012994e-001  7.102215e-001
    outer loop
      vertex -1.570470e-015  2.400000e+000  2.800000e+001
      vertex -2.540823e-001  3.390493e+000  2.700000e+001
      vertex -4.167556e-001  2.363539e+000  2.800000e+001
    endloop
  endfacet
  facet normal -2.091046e-001  6.778996e-001  7.047889e-001
    outer loop
      vertex -7.565712e-001  3.314755e+000  2.700000e+001
      vertex -1.242159e+000  3.164971e+000  2.700000e+001
      vertex -8.208483e-001  2.255262e+000  2.800000e+001
    endloop
  endfacet
  facet normal -1.823953e-001  6.807097e-001  7.094830e-001
    outer loop
      vertex -4.167556e-001  2.363539e+000  2.800000e+001
      vertex -7.565712e-001  3.314755e+000  2.700000e+001
      vertex -8.208483e-001  2.255262e+000  2.800000e+001
    endloop
  endfacet
  facet normal -3.072312e-001  6.379726e-001  7.061161e-001
    outer loop
      vertex -1.242159e+000  3.164971e+000  2.700000e+001
      vertex -1.700000e+000  2.944486e+000  2.700000e+001
      vertex -1.200000e+000  2.078461e+000  2.800000e+001
    endloop
  endfacet
  facet normal -2.984587e-001  6.400464e-001  7.079994e-001
    outer loop
      vertex -8.208483e-001  2.255262e+000  2.800000e+001
      vertex -1.242159e+000  3.164971e+000  2.700000e+001
      vertex -1.200000e+000  2.078461e+000  2.800000e+001
    endloop
  endfacet
  facet normal -4.825262e-001  5.200394e-001  7.047889e-001
    outer loop
      vertex -2.119865e+000  2.658227e+000  2.700000e+001
      vertex -2.492376e+000  2.312587e+000  2.700000e+001
      vertex -1.542690e+000  1.838507e+000  2.800000e+001
    endloop
  endfacet
  facet normal -4.050671e-001  5.784959e-001  7.079995e-001
    outer loop
      vertex -1.200000e+000  2.078461e+000  2.800000e+001
      vertex -2.119865e+000  2.658227e+000  2.700000e+001
      vertex -1.542690e+000  1.838507e+000  2.800000e+001
    endloop
  endfacet
  facet normal -5.552654e-001  4.428094e-001  7.039888e-001
    outer loop
      vertex -2.492376e+000  2.312587e+000  2.700000e+001
      vertex -2.809212e+000  1.915288e+000  2.700000e+001
      vertex -1.838507e+000  1.542690e+000  2.800000e+001
    endloop
  endfacet
  facet normal -4.983141e-001  4.983141e-001  7.094830e-001
    outer loop
      vertex -1.542690e+000  1.838507e+000  2.800000e+001
      vertex -2.492376e+000  2.312587e+000  2.700000e+001
      vertex -1.838507e+000  1.542690e+000  2.800000e+001
    endloop
  endfacet
  facet normal -6.152902e-001  3.552381e-001  7.037214e-001
    outer loop
      vertex -2.809212e+000  1.915288e+000  2.700000e+001
      vertex -3.063294e+000  1.475205e+000  2.700000e+001
      vertex -2.078461e+000  1.200000e+000  2.800000e+001
    endloop
  endfacet
  facet normal -5.766653e-001  4.037853e-001  7.102215e-001
    outer loop
      vertex -1.838507e+000  1.542690e+000  2.800000e+001
      vertex -2.809212e+000  1.915288e+000  2.700000e+001
      vertex -2.078461e+000  1.200000e+000  2.800000e+001
    endloop
  endfacet
  facet normal -6.611168e-001  2.594693e-001  7.039888e-001
    outer loop
      vertex -3.063294e+000  1.475205e+000  2.700000e+001
      vertex -3.248948e+000  1.002168e+000  2.700000e+001
      vertex -2.255262e+000  8.208483e-001  2.800000e+001
    endloop
  endfacet
  facet normal -6.380209e-001  2.975142e-001  7.102215e-001
    outer loop
      vertex -2.078461e+000  1.200000e+000  2.800000e+001
      vertex -3.063294e+000  1.475205e+000  2.700000e+001
      vertex -2.255262e+000  8.208483e-001  2.800000e+001
    endloop
  endfacet
  facet normal -6.916304e-001  1.578600e-001  7.047890e-001
    outer loop
      vertex -3.248948e+000  1.002168e+000  2.700000e+001
      vertex -3.362025e+000  5.067437e-001  2.700000e+001
      vertex -2.363539e+000  4.167556e-001  2.800000e+001
    endloop
  endfacet
  facet normal -6.807098e-001  1.823953e-001  7.094830e-001
    outer loop
      vertex -2.255262e+000  8.208483e-001  2.800000e+001
      vertex -3.248948e+000  1.002168e+000  2.700000e+001
      vertex -2.363539e+000  4.167556e-001  2.800000e+001
    endloop
  endfacet
  facet normal  3.072312e-001  6.379726e-001  7.061161e-001
    outer loop
      vertex  1.700000e+000  2.944486e+000  2.700000e+001
      vertex  1.242159e+000  3.164971e+000  2.700000e+001
      vertex  1.200000e+000  2.078461e+000  2.800000e+001
    endloop
  endfacet
  facet normal -3.988848e-001  5.850564e-001  7.061161e-001
    outer loop
      vertex -1.700000e+000  2.944486e+000  2.700000e+001
      vertex -2.119865e+000  2.658227e+000  2.700000e+001
      vertex -1.200000e+000  2.078461e+000  2.800000e+001
    endloop
  endfacet
  facet normal  0.000000e+000  0.000000e+000 -1.000000e+000
    outer loop
      vertex  3.400000e+000  0.000000e+000  0.000000e+000
      vertex -3.362025e+000  5.067437e-001  0.000000e+000
      vertex  3.362025e+000  5.067437e-001  0.000000e+000
    endloop
  endfacet
  facet normal  0.000000e+000  0.000000e+000 -9.999999e-001
    outer loop
      vertex  3.362025e+000  5.067437e-001  0.000000e+000
      vertex -3.362025e+000  5.067437e-001  0.000000e+000
      vertex -3.248948e+000  1.002168e+000  0.000000e+000
    endloop
  endfacet
  facet normal  0.000000e+000  0.000000e+000 -1.000000e+000
    outer loop
      vertex  3.362025e+000  5.067437e-001  0.000000e+000
      vertex -3.248948e+000  1.002168e+000  0.000000e+000
      vertex  3.248948e+000  1.002168e+000  0.000000e+000
    endloop
  endfacet
  facet normal  0.000000e+000  0.000000e+000 -1.000000e+000
    outer loop
      vertex  3.248948e+000  1.002168e+000  0.000000e+000
      vertex -3.248948e+000  1.002168e+000  0.000000e+000
      vertex -3.063294e+000  1.475205e+000  0.000000e+000
    endloop
  endfacet
  facet normal  0.000000e+000  0.000000e+000 -1.000000e+000
    outer loop
      vertex  3.248948e+000  1.002168e+000  0.000000e+000
      vertex -3.063294e+000  1.475205e+000  0.000000e+000
      vertex  3.063294e+000  1.475205e+000  0.000000e+000
    endloop
  endfacet
  facet normal  0.000000e+000  0.000000e+000 -1.000000e+000
    outer loop
      vertex  3.063294e+000  1.475205e+000  0.000000e+000
      vertex -3.063294e+000  1.475205e+000  0.000000e+000
      vertex -2.809212e+000  1.915288e+000  0.000000e+000
    endloop
  endfacet
  facet normal  0.000000e+000  0.000000e+000 -9.999999e-001
    outer loop
      vertex  3.063294e+000  1.475205e+000  0.000000e+000
      vertex -2.809212e+000  1.915288e+000  0.000000e+000
      vertex  2.809212e+000  1.915288e+000  0.000000e+000
    endloop
  endfacet
  facet normal  0.000000e+000  0.000000e+000 -1.000000e+000
    outer loop
      vertex  2.809212e+000  1.915288e+000  0.000000e+000
      vertex -2.809212e+000  1.915288e+000  0.000000e+000
      vertex -2.492376e+000  2.312587e+000  0.000000e+000
    endloop
  endfacet
  facet normal  0.000000e+000  0.000000e+000 -9.999999e-001
    outer loop
      vertex  2.809212e+000  1.915288e+000  0.000000e+000
      vertex -2.492376e+000  2.312587e+000  0.000000e+000
      vertex  2.492376e+000  2.312587e+000  0.000000e+000
    endloop
  endfacet
  facet normal  0.000000e+000  0.000000e+000 -9.999999e-001
    outer loop
      vertex  2.492376e+000  2.312587e+000  0.000000e+000
      vertex -2.492376e+000  2.312587e+000  0.000000e+000
      vertex -2.119865e+000  2.658227e+000  0.000000e+000
    endloop
  endfacet
  facet normal  0.000000e+000  0.000000e+000 -1.000000e+000
    outer loop
      vertex  2.492376e+000  2.312587e+000  0.000000e+000
      vertex -2.119865e+000  2.658227e+000  0.000000e+000
      vertex  2.119865e+000  2.658227e+000  0.000000e+000
    endloop
  endfacet
  facet normal  0.000000e+000  0.000000e+000 -9.999999e-001
    outer loop
      vertex  2.119865e+000  2.658227e+000  0.000000e+000
      vertex -2.119865e+000  2.658227e+000  0.000000e+000
      vertex -1.700000e+000  2.944486e+000  0.000000e+000
    endloop
  endfacet
  facet normal  0.000000e+000  0.000000e+000 -1.000000e+000
    outer loop
      vertex  2.119865e+000  2.658227e+000  0.000000e+000
      vertex -1.700000e+000  2.944486e+000  0.000000e+000
      vertex  1.700000e+000  2.944486e+000  0.000000e+000
    endloop
  endfacet
  facet normal  0.000000e+000  0.000000e+000 -1.000000e+000
    outer loop
      vertex  1.700000e+000  2.944486e+000  0.000000e+000
      vertex -1.700000e+000  2.944486e+000  0.000000e+000
      vertex -1.242159e+000  3.164971e+000  0.000000e+000
    endloop
  endfacet
  facet normal  0.000000e+000  0.000000e+000 -1.000000e+000
    outer loop
      vertex  1.700000e+000  2.944486e+000  0.000000e+000
      vertex -1.242159e+000  3.164971e+000  0.000000e+000
      vertex  1.242159e+000  3.164971e+000  0.000000e+000
    endloop
  endfacet
  facet normal  0.000000e+000  0.000000e+000 -1.000000e+000
    outer loop
      vertex  1.242159e+000  3.164971e+000  0.000000e+000
      vertex -1.242159e+000  3.164971e+000  0.000000e+000
      vertex -7.565712e-001  3.314755e+000  0.000000e+000
    endloop
  endfacet
  facet normal  0.000000e+000  0.000000e+000 -9.999999e-001
    outer loop
      vertex  1.242159e+000  3.164971e+000  0.000000e+000
      vertex -7.565712e-001  3.314755e+000  0.000000e+000
      vertex  7.565712e-001  3.314755e+000  0.000000e+000
    endloop
  endfacet
  facet normal  0.000000e+000  0.000000e+000 -1.000000e+000
    outer loop
      vertex  7.565712e-001  3.314755e+000  0.000000e+000
      vertex -7.565712e-001  3.314755e+000  0.000000e+000
      vertex -2.540823e-001  3.390493e+000  0.000000e+000
    endloop
  endfacet
  facet normal  0.000000e+000  0.000000e+000 -1.000000e+000
    outer loop
      vertex  7.565712e-001  3.314755e+000  0.000000e+000
      vertex -2.540823e-001  3.390493e+000  0.000000e+000
      vertex  2.540823e-001  3.390493e+000  0.000000e+000
    endloop
  endfacet
  facet normal  0.000000e+000  0.000000e+000 -9.999999e-001
    outer loop
      vertex -3.362025e+000  5.067437e-001  0.000000e+000
      vertex  3.400000e+000  0.000000e+000  0.000000e+000
      vertex -3.400000e+000  4.163662e-016  0.000000e+000
    endloop
  endfacet
  facet normal  0.000000e+000  0.000000e+000 -9.999999e-001
    outer loop
      vertex -3.400000e+000  4.163662e-016  0.000000e+000
      vertex  3.400000e+000  0.000000e+000  0.000000e+000
      vertex  3.362025e+000 -5.067437e-001  0.000000e+000
    endloop
  endfacet
  facet normal  0.000000e+000  0.000000e+000 -1.000000e+000
    outer loop
      vertex -3.400000e+000  4.163662e-016  0.000000e+000
      vertex  3.362025e+000 -5.067437e-001  0.000000e+000
      vertex -3.362025e+000 -5.067437e-001  0.000000e+000
    endloop
  endfacet
  facet normal  0.000000e+000  0.000000e+000 -9.999999e-001
    outer loop
      vertex -3.362025e+000 -5.067437e-001  0.000000e+000
      vertex  3.362025e+000 -5.067437e-001  0.000000e+000
      vertex  3.248948e+000 -1.002168e+000  0.000000e+000
    endloop
  endfacet
  facet normal  0.000000e+000  0.000000e+000 -1.000000e+000
    outer loop
      vertex -3.362025e+000 -5.067437e-001  0.000000e+000
      vertex  3.248948e+000 -1.002168e+000  0.000000e+000
      vertex -3.248948e+000 -1.002168e+000  0.000000e+000
    endloop
  endfacet
  facet normal  0.000000e+000  0.000000e+000 -1.000000e+000
    outer loop
      vertex -3.248948e+000 -1.002168e+000  0.000000e+000
      vertex  3.248948e+000 -1.002168e+000  0.000000e+000
      vertex  3.063294e+000 -1.475205e+000  0.000000e+000
    endloop
  endfacet
  facet normal  0.000000e+000  0.000000e+000 -1.000000e+000
    outer loop
      vertex -3.248948e+000 -1.002168e+000  0.000000e+000
      vertex  3.063294e+000 -1.475205e+000  0.000000e+000
      vertex -3.063294e+000 -1.475205e+000  0.000000e+000
    endloop
  endfacet
  facet normal  0.000000e+000  0.000000e+000 -1.000000e+000
    outer loop
      vertex -3.063294e+000 -1.475205e+000  0.000000e+000
      vertex  3.063294e+000 -1.475205e+000  0.000000e+000
      vertex  2.809212e+000 -1.915288e+000  0.000000e+000
    endloop
  endfacet
  facet normal  0.000000e+000  0.000000e+000 -9.999999e-001
    outer loop
      vertex -3.063294e+000 -1.475205e+000  0.000000e+000
      vertex  2.809212e+000 -1.915288e+000  0.000000e+000
      vertex -2.809212e+000 -1.915288e+000  0.000000e+000
    endloop
  endfacet
  facet normal  0.000000e+000  0.000000e+000 -1.000000e+000
    outer loop
      vertex -2.809212e+000 -1.915288e+000  0.000000e+000
      vertex  2.809212e+000 -1.915288e+000  0.000000e+000
      vertex  2.492376e+000 -2.312587e+000  0.000000e+000
    endloop
  endfacet
  facet normal  0.000000e+000  0.000000e+000 -9.999999e-001
    outer loop
      vertex -2.809212e+000 -1.915288e+000  0.000000e+000
      vertex  2.492376e+000 -2.312587e+000  0.000000e+000
      vertex -2.492376e+000 -2.312587e+000  0.000000e+000
    endloop
  endfacet
  facet normal  0.000000e+000  0.000000e+000 -9.999999e-001
    outer loop
      vertex -2.492376e+000 -2.312587e+000  0.000000e+000
      vertex  2.492376e+000 -2.312587e+000  0.000000e+000
      vertex  2.119865e+000 -2.658227e+000  0.000000e+000
    endloop
  endfacet
  facet normal  0.000000e+000  0.000000e+000 -1.000000e+000
    outer loop
      vertex -2.492376e+000 -2.312587e+000  0.000000e+000
      vertex  2.119865e+000 -2.658227e+000  0.000000e+000
      vertex -2.119865e+000 -2.658227e+000  0.000000e+000
    endloop
  endfacet
  facet normal  0.000000e+000  0.000000e+000 -9.999999e-001
    outer loop
      vertex -2.119865e+000 -2.658227e+000  0.000000e+000
      vertex  2.119865e+000 -2.658227e+000  0.000000e+000
      vertex  1.700000e+000 -2.944486e+000  0.000000e+000
    endloop
  endfacet
  facet normal  0.000000e+000  0.000000e+000 -1.000000e+000
    outer loop
      vertex -2.119865e+000 -2.658227e+000  0.000000e+000
      vertex  1.700000e+000 -2.944486e+000  0.000000e+000
      vertex -1.700000e+000 -2.944486e+000  0.000000e+000
    endloop
  endfacet
  facet normal  0.000000e+000  0.000000e+000 -1.000000e+000
    outer loop
      vertex -1.700000e+000 -2.944486e+000  0.000000e+000
      vertex  1.700000e+000 -2.944486e+000  0.000000e+000
      vertex  1.242159e+000 -3.164971e+000  0.000000e+000
    endloop
  endfacet
  facet normal  0.000000e+000  0.000000e+000 -1.000000e+000
    outer loop
      vertex -1.700000e+000 -2.944486e+000  0.000000e+000
      vertex  1.242159e+000 -3.164971e+000  0.000000e+000
      vertex -1.242159e+000 -3.164971e+000  0.000000e+000
    endloop
  endfacet
  facet normal  0.000000e+000  0.000000e+000 -1.000000e+000
    outer loop
      vertex -1.242159e+000 -3.164971e+000  0.000000e+000
      vertex  1.242159e+000 -3.164971e+000  0.000000e+000
      vertex  7.565712e-001 -3.314755e+000  0.000000e+000
    endloop
  endfacet
  facet normal  0.000000e+000  0.000000e+000 -9.999999e-001
    outer loop
      vertex -1.242159e+000 -3.164971e+000  0.000000e+000
      vertex  7.565712e-001 -3.314755e+000  0.000000e+000
      vertex -7.565712e-001 -3.314755e+000  0.000000e+000
    endloop
  endfacet
  facet normal  0.000000e+000  0.000000e+000 -1.000000e+000
    outer loop
      vertex -7.565712e-001 -3.314755e+000  0.000000e+000
      vertex  7.565712e-001 -3.314755e+000  0.000000e+000
      vertex  2.540823e-001 -3.390493e+000  0.000000e+000
    endloop
  endfacet
  facet normal  0.000000e+000  0.000000e+000 -1.000000e+000
    outer loop
      vertex -7.565712e-001 -3.314755e+000  0.000000e+000
      vertex  2.540823e-001 -3.390493e+000  0.000000e+000
      vertex -2.540823e-001 -3.390493e+000  0.000000e+000
    endloop
  endfacet
endsolid CATIA STL
